<?xml version="1.0" encoding="utf-8"?>
<!-- Generator: Adobe Illustrator 18.1.1, SVG Export Plug-In . SVG Version: 6.00 Build 0)  -->
<svg version="1.1" id="security" xmlns="http://www.w3.org/2000/svg" xmlns:xlink="http://www.w3.org/1999/xlink" x="0px" y="0px"
	 viewBox="0 0 100 100" enable-background="new 0 0 100 100" xml:space="preserve">
<path d="M91.1,16.3L53.6,0.7c-2.3-1-4.9-1-7.2,0L8.9,16.3c-3.5,1.5-5.8,4.9-5.8,8.7c0,38.8,22.4,65.6,43.3,74.3c2.3,1,4.9,1,7.2,0
	c16.7-7,43.3-31.1,43.3-74.3C96.9,21.2,94.6,17.8,91.1,16.3z M51.2,93.5c-0.8,0.3-1.6,0.3-2.4,0C29.7,85.9,9.4,59.4,9.4,25
	c0-1.3,0.8-2.4,1.9-2.9L48.8,6.5c0.8-0.3,1.6-0.3,2.4,0l37.5,15.6c1.2,0.5,1.9,1.6,1.9,2.9C90.6,59.4,70.3,85.9,51.2,93.5z M79.5,35
	L44.2,70c-0.9,0.9-2.4,0.9-3.3,0L24.1,53.1c-0.9-0.9-0.9-2.4,0-3.3l1.7-1.7c0.9-0.9,2.4-0.9,3.3,0l13.5,13.6L74.5,30
	c0.9-0.9,2.4-0.9,3.3,0l1.7,1.7C80.4,32.6,80.4,34.1,79.5,35z"/>
</svg>
