<?xml version="1.0" encoding="utf-8"?>
<!-- Generator: Adobe Illustrator 18.1.1, SVG Export Plug-In . SVG Version: 6.00 Build 0)  -->
<svg version="1.1" id="Layer_1" xmlns="http://www.w3.org/2000/svg" xmlns:xlink="http://www.w3.org/1999/xlink" x="0px" y="0px"
	 viewBox="0 0 100 100" enable-background="new 0 0 100 100" xml:space="preserve">
<path d="M90.6,0.8L3.1,51.3c-4.5,2.6-4,9.2,0.7,11.2l27.4,11.3v19.9c0,5.9,7.4,8.5,11.1,4l11.9-14.4l24.7,10.2
	c3.7,1.5,7.9-0.8,8.6-4.8L99.9,7.2C100.7,2,95.1-1.8,90.6,0.8z M37.5,93.8V76.4l10.6,4.4L37.5,93.8z M81.2,87.7L41,71.1l39-46.1
	c0.9-1.1-0.6-2.6-1.7-1.6L28.4,65.9L6.2,56.7L93.8,6.2L81.2,87.7z"/>
</svg>
